<?xml version="1.0" encoding="UTF-8"?>
<svg xmlns="http://www.w3.org/2000/svg" xmlns:xlink="http://www.w3.org/1999/xlink" width="64px" height="64px" viewBox="0 0 64 64" version="1.1">
<g id="surface1">
<path style=" stroke:none;fill-rule:nonzero;fill:rgb(57.254902%,43.921569%,84.313725%);fill-opacity:1;" d="M 24.164062 32.550781 L 22.710938 31.101562 L 32.023438 21.8125 L 41.335938 31.101562 L 39.875 32.550781 L 33.050781 25.726562 L 33.050781 55.949219 L 30.988281 55.949219 L 30.988281 25.726562 Z M 24.164062 32.550781 "/>
<path style=" stroke:none;fill-rule:nonzero;fill:rgb(57.254902%,43.921569%,84.313725%);fill-opacity:1;" d="M 49.914062 22.949219 C 49.914062 22.800781 49.9375 22.648438 49.9375 22.5 C 49.9375 14.460938 43.335938 7.949219 35.335938 7.949219 C 29.574219 7.949219 24.613281 11.335938 22.289062 16.238281 C 21.273438 15.726562 20.148438 15.4375 18.9375 15.4375 C 15.238281 15.4375 12.175781 18.386719 11.574219 21.9375 C 7.175781 23.449219 4 27.773438 4 32.726562 C 4 38.9375 9.011719 44 15.199219 44 L 26.625 44 L 26.625 42 L 15.300781 42 C 10.1875 42 6.023438 37.8125 6.023438 32.675781 C 6.023438 28.699219 8.550781 25.023438 12.300781 23.726562 L 13.351562 23.363281 L 13.539062 22.261719 C 13.988281 19.5625 16.300781 17.351562 19.023438 17.351562 C 19.886719 17.351562 20.738281 17.550781 21.511719 17.949219 L 23.199219 18.800781 L 24.011719 17.085938 C 26.085938 12.726562 30.523438 9.914062 35.3125 9.914062 C 42.226562 9.914062 47.925781 15.324219 47.925781 22.273438 C 47.925781 23.9375 47.898438 24.8125 47.898438 24.8125 L 49.800781 24.824219 C 54.375 24.886719 58 29 58 33.613281 C 58 38.210938 54.273438 41.976562 49.6875 42 L 37.125 42 L 37.125 44 L 49.75 44 C 55.375 44 60 39.335938 60 33.648438 C 60 27.960938 55.5625 22.960938 49.914062 22.949219 Z M 49.914062 22.949219 "/>
</g>
</svg>
